<mxfile host="65bd71144e">
    <diagram id="C1HaNn75U5SkOPRPdA7B" name="Page-1">
        <mxGraphModel dx="-3933" dy="555" grid="1" gridSize="10" guides="1" tooltips="1" connect="1" arrows="1" fold="1" page="1" pageScale="1" pageWidth="1700" pageHeight="1100" math="0" shadow="0">
            <root>
                <mxCell id="0"/>
                <mxCell id="1" parent="0"/>
                <mxCell id="2" value="Verrukkulluk" style="swimlane;childLayout=stackLayout;resizeParent=1;resizeParentMax=0;startSize=20;html=1;" vertex="1" parent="1">
                    <mxGeometry x="5160" y="160" width="740" height="630" as="geometry"/>
                </mxCell>
                <mxCell id="3" value="Controller" style="swimlane;startSize=20;html=1;" vertex="1" parent="2">
                    <mxGeometry y="20" width="160" height="610" as="geometry">
                        <mxRectangle y="20" width="40" height="460" as="alternateBounds"/>
                    </mxGeometry>
                </mxCell>
                <mxCell id="4" style="edgeStyle=orthogonalEdgeStyle;html=1;exitX=0.5;exitY=1;exitDx=0;exitDy=0;entryX=0.5;entryY=0;entryDx=0;entryDy=0;" edge="1" parent="3" source="5" target="7">
                    <mxGeometry relative="1" as="geometry"/>
                </mxCell>
                <mxCell id="5" value="Start" style="ellipse;whiteSpace=wrap;html=1;" vertex="1" parent="3">
                    <mxGeometry x="40" y="40" width="80" height="40" as="geometry"/>
                </mxCell>
                <mxCell id="6" style="edgeStyle=orthogonalEdgeStyle;html=1;exitX=0.5;exitY=1;exitDx=0;exitDy=0;entryX=0.5;entryY=0;entryDx=0;entryDy=0;" edge="1" parent="3" source="7" target="9">
                    <mxGeometry relative="1" as="geometry"/>
                </mxCell>
                <mxCell id="7" value="Gerecht ophalen" style="rounded=0;whiteSpace=wrap;html=1;" vertex="1" parent="3">
                    <mxGeometry x="20" y="100" width="120" height="60" as="geometry"/>
                </mxCell>
                <mxCell id="8" style="edgeStyle=orthogonalEdgeStyle;html=1;exitX=0.5;exitY=1;exitDx=0;exitDy=0;entryX=0.5;entryY=0;entryDx=0;entryDy=0;" edge="1" parent="3" source="9" target="10">
                    <mxGeometry relative="1" as="geometry"/>
                </mxCell>
                <mxCell id="9" value="HTML" style="rounded=0;whiteSpace=wrap;html=1;" vertex="1" parent="3">
                    <mxGeometry x="40" y="470" width="80" height="40" as="geometry"/>
                </mxCell>
                <mxCell id="10" value="Eind" style="ellipse;whiteSpace=wrap;html=1;" vertex="1" parent="3">
                    <mxGeometry x="40" y="540" width="80" height="40" as="geometry"/>
                </mxCell>
                <mxCell id="11" value="Business Logic" style="swimlane;startSize=20;html=1;" vertex="1" parent="2">
                    <mxGeometry x="160" y="20" width="400" height="610" as="geometry"/>
                </mxCell>
                <mxCell id="26" style="edgeStyle=orthogonalEdgeStyle;html=1;exitX=1;exitY=0.5;exitDx=0;exitDy=0;entryX=0;entryY=0.5;entryDx=0;entryDy=0;" edge="1" parent="11" source="12" target="13">
                    <mxGeometry relative="1" as="geometry"/>
                </mxCell>
                <mxCell id="27" style="edgeStyle=orthogonalEdgeStyle;html=1;exitX=1;exitY=0.5;exitDx=0;exitDy=0;entryX=0;entryY=0.5;entryDx=0;entryDy=0;" edge="1" parent="11" source="12" target="14">
                    <mxGeometry relative="1" as="geometry"/>
                </mxCell>
                <mxCell id="28" style="edgeStyle=orthogonalEdgeStyle;html=1;exitX=1;exitY=0.5;exitDx=0;exitDy=0;entryX=0;entryY=0.5;entryDx=0;entryDy=0;" edge="1" parent="11" source="12" target="15">
                    <mxGeometry relative="1" as="geometry"/>
                </mxCell>
                <mxCell id="29" style="edgeStyle=orthogonalEdgeStyle;html=1;exitX=1;exitY=0.5;exitDx=0;exitDy=0;entryX=0;entryY=0.5;entryDx=0;entryDy=0;" edge="1" parent="11" source="12" target="16">
                    <mxGeometry relative="1" as="geometry"/>
                </mxCell>
                <mxCell id="30" style="edgeStyle=orthogonalEdgeStyle;html=1;exitX=1;exitY=0.5;exitDx=0;exitDy=0;entryX=0;entryY=0.5;entryDx=0;entryDy=0;" edge="1" parent="11" source="12" target="17">
                    <mxGeometry relative="1" as="geometry"/>
                </mxCell>
                <mxCell id="31" style="edgeStyle=orthogonalEdgeStyle;html=1;exitX=1;exitY=0.5;exitDx=0;exitDy=0;entryX=0;entryY=0.5;entryDx=0;entryDy=0;" edge="1" parent="11" source="12" target="18">
                    <mxGeometry relative="1" as="geometry"/>
                </mxCell>
                <mxCell id="32" style="edgeStyle=orthogonalEdgeStyle;html=1;entryX=0;entryY=0.5;entryDx=0;entryDy=0;startArrow=none;exitX=1;exitY=0.5;exitDx=0;exitDy=0;" edge="1" parent="11" source="12" target="19">
                    <mxGeometry relative="1" as="geometry">
                        <mxPoint x="180" y="160" as="sourcePoint"/>
                    </mxGeometry>
                </mxCell>
                <mxCell id="180" style="edgeStyle=orthogonalEdgeStyle;html=1;exitX=1;exitY=0.5;exitDx=0;exitDy=0;entryX=0;entryY=0.5;entryDx=0;entryDy=0;fontSize=9;" edge="1" parent="11" source="12" target="175">
                    <mxGeometry relative="1" as="geometry"/>
                </mxCell>
                <mxCell id="12" value="Gerecht ophalen" style="rounded=0;whiteSpace=wrap;html=1;" vertex="1" parent="11">
                    <mxGeometry x="60" y="100" width="100" height="60" as="geometry"/>
                </mxCell>
                <mxCell id="13" value="Keuken" style="rounded=0;whiteSpace=wrap;html=1;" vertex="1" parent="11">
                    <mxGeometry x="260" y="100" width="80" height="40" as="geometry"/>
                </mxCell>
                <mxCell id="14" value="Type" style="rounded=0;whiteSpace=wrap;html=1;" vertex="1" parent="11">
                    <mxGeometry x="260" y="160" width="80" height="40" as="geometry"/>
                </mxCell>
                <mxCell id="15" value="Ingrediënt" style="rounded=0;whiteSpace=wrap;html=1;" vertex="1" parent="11">
                    <mxGeometry x="260" y="220" width="80" height="40" as="geometry"/>
                </mxCell>
                <mxCell id="16" value="Bereiding" style="rounded=0;whiteSpace=wrap;html=1;" vertex="1" parent="11">
                    <mxGeometry x="260" y="280" width="80" height="40" as="geometry"/>
                </mxCell>
                <mxCell id="17" value="Opmerking" style="rounded=0;whiteSpace=wrap;html=1;" vertex="1" parent="11">
                    <mxGeometry x="260" y="340" width="80" height="40" as="geometry"/>
                </mxCell>
                <mxCell id="18" value="Rating" style="rounded=0;whiteSpace=wrap;html=1;" vertex="1" parent="11">
                    <mxGeometry x="260" y="400" width="80" height="40" as="geometry"/>
                </mxCell>
                <mxCell id="19" value="Favoriet" style="rounded=0;whiteSpace=wrap;html=1;" vertex="1" parent="11">
                    <mxGeometry x="260" y="460" width="80" height="40" as="geometry"/>
                </mxCell>
                <mxCell id="171" value="&lt;i&gt;Volg ERD&lt;/i&gt;" style="text;html=1;align=center;verticalAlign=middle;resizable=0;points=[];autosize=1;strokeColor=none;fillColor=none;fontSize=9;" vertex="1" parent="11">
                    <mxGeometry x="150" y="110" width="60" height="20" as="geometry"/>
                </mxCell>
                <mxCell id="175" value="Bereken Calorie, Prijs, Hoeveelheid" style="rounded=0;whiteSpace=wrap;html=1;" vertex="1" parent="11">
                    <mxGeometry x="260" y="520" width="80" height="50" as="geometry"/>
                </mxCell>
                <mxCell id="20" value="Model" style="swimlane;startSize=20;html=1;" vertex="1" parent="2">
                    <mxGeometry x="560" y="20" width="180" height="610" as="geometry"/>
                </mxCell>
                <mxCell id="33" value="&lt;i&gt;KeukenType&lt;br&gt;ophalen*&lt;/i&gt;" style="rounded=0;whiteSpace=wrap;html=1;" vertex="1" parent="20">
                    <mxGeometry x="50" y="130" width="80" height="40" as="geometry"/>
                </mxCell>
                <mxCell id="36" value="&lt;i&gt;Ingrediënt&lt;br&gt;ophalen*&lt;/i&gt;" style="rounded=0;whiteSpace=wrap;html=1;" vertex="1" parent="20">
                    <mxGeometry x="50" y="220" width="80" height="40" as="geometry"/>
                </mxCell>
                <mxCell id="37" value="&lt;i&gt;Bereiding&lt;br&gt;ophalen*&lt;/i&gt;" style="rounded=0;whiteSpace=wrap;html=1;" vertex="1" parent="20">
                    <mxGeometry x="50" y="280" width="80" height="40" as="geometry"/>
                </mxCell>
                <mxCell id="38" value="&lt;i&gt;Opmerking&lt;br&gt;ophalen*&lt;/i&gt;" style="rounded=0;whiteSpace=wrap;html=1;" vertex="1" parent="20">
                    <mxGeometry x="50" y="340" width="80" height="40" as="geometry"/>
                </mxCell>
                <mxCell id="39" value="&lt;i&gt;Rating&lt;br&gt;ophalen*&lt;/i&gt;" style="rounded=0;whiteSpace=wrap;html=1;" vertex="1" parent="20">
                    <mxGeometry x="50" y="400" width="80" height="40" as="geometry"/>
                </mxCell>
                <mxCell id="40" value="&lt;i&gt;Favoriet&lt;br&gt;ophalen*&lt;/i&gt;" style="rounded=0;whiteSpace=wrap;html=1;" vertex="1" parent="20">
                    <mxGeometry x="50" y="460" width="80" height="40" as="geometry"/>
                </mxCell>
                <mxCell id="166" value="Gerecht" style="swimlane;" vertex="1" parent="20">
                    <mxGeometry x="40" y="40" width="100" height="60" as="geometry"/>
                </mxCell>
                <mxCell id="21" style="edgeStyle=orthogonalEdgeStyle;html=1;exitX=0;exitY=0.5;exitDx=0;exitDy=0;entryX=1;entryY=0.5;entryDx=0;entryDy=0;" edge="1" parent="2" source="12" target="7">
                    <mxGeometry relative="1" as="geometry"/>
                </mxCell>
                <mxCell id="25" style="edgeStyle=orthogonalEdgeStyle;html=1;exitX=0;exitY=0.5;exitDx=0;exitDy=0;entryX=0.5;entryY=0;entryDx=0;entryDy=0;" edge="1" parent="2" source="166" target="12">
                    <mxGeometry relative="1" as="geometry">
                        <mxPoint x="600" y="80" as="sourcePoint"/>
                    </mxGeometry>
                </mxCell>
                <mxCell id="34" style="html=1;exitX=0;exitY=0.5;exitDx=0;exitDy=0;entryX=1;entryY=0.5;entryDx=0;entryDy=0;" edge="1" parent="2" source="33" target="13">
                    <mxGeometry relative="1" as="geometry"/>
                </mxCell>
                <mxCell id="35" style="html=1;exitX=0;exitY=0.5;exitDx=0;exitDy=0;entryX=1;entryY=0.5;entryDx=0;entryDy=0;" edge="1" parent="2" source="33" target="14">
                    <mxGeometry relative="1" as="geometry"/>
                </mxCell>
                <mxCell id="41" style="edgeStyle=orthogonalEdgeStyle;html=1;exitX=0;exitY=0.5;exitDx=0;exitDy=0;entryX=1;entryY=0.5;entryDx=0;entryDy=0;" edge="1" parent="2" source="36" target="15">
                    <mxGeometry relative="1" as="geometry"/>
                </mxCell>
                <mxCell id="43" style="edgeStyle=orthogonalEdgeStyle;html=1;exitX=0;exitY=0.5;exitDx=0;exitDy=0;entryX=1;entryY=0.5;entryDx=0;entryDy=0;" edge="1" parent="2" source="37" target="16">
                    <mxGeometry relative="1" as="geometry"/>
                </mxCell>
                <mxCell id="44" style="edgeStyle=orthogonalEdgeStyle;html=1;exitX=0;exitY=0.5;exitDx=0;exitDy=0;entryX=1;entryY=0.5;entryDx=0;entryDy=0;" edge="1" parent="2" source="38" target="17">
                    <mxGeometry relative="1" as="geometry"/>
                </mxCell>
                <mxCell id="45" style="edgeStyle=orthogonalEdgeStyle;html=1;exitX=0;exitY=0.5;exitDx=0;exitDy=0;entryX=1;entryY=0.5;entryDx=0;entryDy=0;" edge="1" parent="2" source="39" target="18">
                    <mxGeometry relative="1" as="geometry"/>
                </mxCell>
                <mxCell id="46" style="edgeStyle=orthogonalEdgeStyle;html=1;exitX=0;exitY=0.5;exitDx=0;exitDy=0;entryX=1;entryY=0.5;entryDx=0;entryDy=0;" edge="1" parent="2" source="40" target="19">
                    <mxGeometry relative="1" as="geometry"/>
                </mxCell>
                <mxCell id="47" value="Class: KeukenType" style="swimlane;childLayout=stackLayout;resizeParent=1;resizeParentMax=0;startSize=20;html=1;" vertex="1" parent="1">
                    <mxGeometry x="5960" y="160" width="640" height="260" as="geometry"/>
                </mxCell>
                <mxCell id="48" value="Controller" style="swimlane;startSize=20;html=1;" vertex="1" parent="47">
                    <mxGeometry y="20" width="80" height="240" as="geometry">
                        <mxRectangle y="20" width="40" height="460" as="alternateBounds"/>
                    </mxGeometry>
                </mxCell>
                <mxCell id="56" value="Business Logic" style="swimlane;startSize=20;html=1;" vertex="1" parent="47">
                    <mxGeometry x="80" y="20" width="400" height="240" as="geometry"/>
                </mxCell>
                <mxCell id="91" value="KeukenType ophalen" style="rounded=0;whiteSpace=wrap;html=1;" vertex="1" parent="56">
                    <mxGeometry x="40" y="160" width="80" height="40" as="geometry"/>
                </mxCell>
                <mxCell id="72" value="Model" style="swimlane;startSize=20;html=1;" vertex="1" parent="47">
                    <mxGeometry x="480" y="20" width="160" height="240" as="geometry"/>
                </mxCell>
                <mxCell id="90" value="KeukenType" style="swimlane;" vertex="1" parent="72">
                    <mxGeometry x="20" y="60" width="120" height="80" as="geometry"/>
                </mxCell>
                <mxCell id="92" style="edgeStyle=orthogonalEdgeStyle;html=1;exitX=0;exitY=0.5;exitDx=0;exitDy=0;entryX=0.5;entryY=0;entryDx=0;entryDy=0;" edge="1" parent="47" source="90" target="91">
                    <mxGeometry relative="1" as="geometry"/>
                </mxCell>
                <mxCell id="93" value="Class: Ingrediënt" style="swimlane;childLayout=stackLayout;resizeParent=1;resizeParentMax=0;startSize=20;html=1;" vertex="1" parent="1">
                    <mxGeometry x="5960" y="460" width="640" height="260" as="geometry"/>
                </mxCell>
                <mxCell id="94" value="Controller" style="swimlane;startSize=20;html=1;" vertex="1" parent="93">
                    <mxGeometry y="20" width="80" height="240" as="geometry">
                        <mxRectangle y="20" width="40" height="460" as="alternateBounds"/>
                    </mxGeometry>
                </mxCell>
                <mxCell id="95" value="Business Logic" style="swimlane;startSize=20;html=1;" vertex="1" parent="93">
                    <mxGeometry x="80" y="20" width="400" height="240" as="geometry"/>
                </mxCell>
                <mxCell id="102" style="html=1;exitX=1;exitY=0.5;exitDx=0;exitDy=0;entryX=0;entryY=0.5;entryDx=0;entryDy=0;" edge="1" parent="95" source="96" target="101">
                    <mxGeometry relative="1" as="geometry"/>
                </mxCell>
                <mxCell id="96" value="Ingrediënt&lt;br&gt;ophalen" style="rounded=0;whiteSpace=wrap;html=1;" vertex="1" parent="95">
                    <mxGeometry x="40" y="120" width="80" height="40" as="geometry"/>
                </mxCell>
                <mxCell id="101" value="Artikel ophalen" style="rounded=0;whiteSpace=wrap;html=1;" vertex="1" parent="95">
                    <mxGeometry x="280" y="120" width="80" height="40" as="geometry"/>
                </mxCell>
                <mxCell id="97" value="Model" style="swimlane;startSize=20;html=1;" vertex="1" parent="93">
                    <mxGeometry x="480" y="20" width="160" height="240" as="geometry"/>
                </mxCell>
                <mxCell id="98" value="Ingrediënt" style="swimlane;startSize=23;" vertex="1" parent="97">
                    <mxGeometry x="20" y="60" width="120" height="80" as="geometry"/>
                </mxCell>
                <mxCell id="100" value="&lt;i style=&quot;&quot;&gt;Artikel ophalen*&lt;/i&gt;" style="rounded=0;whiteSpace=wrap;html=1;" vertex="1" parent="97">
                    <mxGeometry x="40" y="160" width="80" height="40" as="geometry"/>
                </mxCell>
                <mxCell id="99" style="edgeStyle=orthogonalEdgeStyle;html=1;exitX=0;exitY=0.5;exitDx=0;exitDy=0;entryX=0.5;entryY=0;entryDx=0;entryDy=0;" edge="1" parent="93" source="98" target="96">
                    <mxGeometry relative="1" as="geometry"/>
                </mxCell>
                <mxCell id="103" style="html=1;exitX=0;exitY=0.5;exitDx=0;exitDy=0;entryX=1;entryY=0.5;entryDx=0;entryDy=0;" edge="1" parent="93" source="100" target="101">
                    <mxGeometry relative="1" as="geometry"/>
                </mxCell>
                <mxCell id="104" value="Class: Artikel" style="swimlane;childLayout=stackLayout;resizeParent=1;resizeParentMax=0;startSize=20;html=1;" vertex="1" parent="1">
                    <mxGeometry x="6680" y="460" width="640" height="260" as="geometry"/>
                </mxCell>
                <mxCell id="105" value="Controller" style="swimlane;startSize=20;html=1;" vertex="1" parent="104">
                    <mxGeometry y="20" width="80" height="240" as="geometry">
                        <mxRectangle y="20" width="40" height="460" as="alternateBounds"/>
                    </mxGeometry>
                </mxCell>
                <mxCell id="106" value="Business Logic" style="swimlane;startSize=20;html=1;" vertex="1" parent="104">
                    <mxGeometry x="80" y="20" width="400" height="240" as="geometry"/>
                </mxCell>
                <mxCell id="108" value="Artikel&lt;br&gt;ophalen" style="rounded=0;whiteSpace=wrap;html=1;" vertex="1" parent="106">
                    <mxGeometry x="40" y="160" width="80" height="40" as="geometry"/>
                </mxCell>
                <mxCell id="110" value="Model" style="swimlane;startSize=20;html=1;" vertex="1" parent="104">
                    <mxGeometry x="480" y="20" width="160" height="240" as="geometry"/>
                </mxCell>
                <mxCell id="111" value="Artikel" style="swimlane;startSize=23;" vertex="1" parent="110">
                    <mxGeometry x="20" y="60" width="120" height="80" as="geometry"/>
                </mxCell>
                <mxCell id="113" style="edgeStyle=orthogonalEdgeStyle;html=1;exitX=0;exitY=0.5;exitDx=0;exitDy=0;entryX=0.5;entryY=0;entryDx=0;entryDy=0;" edge="1" parent="104" source="111" target="108">
                    <mxGeometry relative="1" as="geometry"/>
                </mxCell>
                <mxCell id="115" value="Class: Bereiding" style="swimlane;childLayout=stackLayout;resizeParent=1;resizeParentMax=0;startSize=20;html=1;" vertex="1" parent="1">
                    <mxGeometry x="5960" y="760" width="640" height="260" as="geometry"/>
                </mxCell>
                <mxCell id="116" value="Controller" style="swimlane;startSize=20;html=1;" vertex="1" parent="115">
                    <mxGeometry y="20" width="80" height="240" as="geometry">
                        <mxRectangle y="20" width="40" height="460" as="alternateBounds"/>
                    </mxGeometry>
                </mxCell>
                <mxCell id="117" value="Business Logic" style="swimlane;startSize=20;html=1;" vertex="1" parent="115">
                    <mxGeometry x="80" y="20" width="400" height="240" as="geometry"/>
                </mxCell>
                <mxCell id="118" value="Bereiding&lt;br&gt;ophalen" style="rounded=0;whiteSpace=wrap;html=1;" vertex="1" parent="117">
                    <mxGeometry x="40" y="160" width="80" height="40" as="geometry"/>
                </mxCell>
                <mxCell id="119" value="Model" style="swimlane;startSize=20;html=1;" vertex="1" parent="115">
                    <mxGeometry x="480" y="20" width="160" height="240" as="geometry"/>
                </mxCell>
                <mxCell id="120" value="Bereiding" style="swimlane;startSize=23;" vertex="1" parent="119">
                    <mxGeometry x="20" y="60" width="120" height="80" as="geometry"/>
                </mxCell>
                <mxCell id="121" style="edgeStyle=orthogonalEdgeStyle;html=1;exitX=0;exitY=0.5;exitDx=0;exitDy=0;entryX=0.5;entryY=0;entryDx=0;entryDy=0;" edge="1" parent="115" source="120" target="118">
                    <mxGeometry relative="1" as="geometry"/>
                </mxCell>
                <mxCell id="123" value="Class: Opmerking" style="swimlane;childLayout=stackLayout;resizeParent=1;resizeParentMax=0;startSize=20;html=1;" vertex="1" parent="1">
                    <mxGeometry x="5960" y="1060" width="640" height="260" as="geometry"/>
                </mxCell>
                <mxCell id="124" value="Controller" style="swimlane;startSize=20;html=1;" vertex="1" parent="123">
                    <mxGeometry y="20" width="80" height="240" as="geometry">
                        <mxRectangle y="20" width="40" height="460" as="alternateBounds"/>
                    </mxGeometry>
                </mxCell>
                <mxCell id="125" value="Business Logic" style="swimlane;startSize=20;html=1;" vertex="1" parent="123">
                    <mxGeometry x="80" y="20" width="400" height="240" as="geometry"/>
                </mxCell>
                <mxCell id="126" style="edgeStyle=orthogonalEdgeStyle;html=1;exitX=1;exitY=0.5;exitDx=0;exitDy=0;entryX=0;entryY=0.5;entryDx=0;entryDy=0;" edge="1" parent="125" source="127" target="128">
                    <mxGeometry relative="1" as="geometry"/>
                </mxCell>
                <mxCell id="127" value="Opmerking&lt;br&gt;ophalen" style="rounded=0;whiteSpace=wrap;html=1;" vertex="1" parent="125">
                    <mxGeometry x="40" y="160" width="80" height="40" as="geometry"/>
                </mxCell>
                <mxCell id="128" value="User ophalen" style="rounded=0;whiteSpace=wrap;html=1;" vertex="1" parent="125">
                    <mxGeometry x="280" y="160" width="80" height="40" as="geometry"/>
                </mxCell>
                <mxCell id="129" value="Model" style="swimlane;startSize=20;html=1;" vertex="1" parent="123">
                    <mxGeometry x="480" y="20" width="160" height="240" as="geometry"/>
                </mxCell>
                <mxCell id="130" value="Opmerking" style="swimlane;startSize=23;" vertex="1" parent="129">
                    <mxGeometry x="20" y="60" width="120" height="80" as="geometry"/>
                </mxCell>
                <mxCell id="131" value="&lt;i style=&quot;&quot;&gt;User ophalen*&lt;/i&gt;" style="rounded=0;whiteSpace=wrap;html=1;" vertex="1" parent="129">
                    <mxGeometry x="40" y="160" width="80" height="40" as="geometry"/>
                </mxCell>
                <mxCell id="132" style="edgeStyle=orthogonalEdgeStyle;html=1;exitX=0;exitY=0.5;exitDx=0;exitDy=0;entryX=0.5;entryY=0;entryDx=0;entryDy=0;" edge="1" parent="123" source="130" target="127">
                    <mxGeometry relative="1" as="geometry"/>
                </mxCell>
                <mxCell id="133" style="edgeStyle=orthogonalEdgeStyle;html=1;exitX=0;exitY=0.5;exitDx=0;exitDy=0;entryX=1;entryY=0.5;entryDx=0;entryDy=0;" edge="1" parent="123" source="131" target="128">
                    <mxGeometry relative="1" as="geometry"/>
                </mxCell>
                <mxCell id="134" value="Class: Favoriet" style="swimlane;childLayout=stackLayout;resizeParent=1;resizeParentMax=0;startSize=20;html=1;" vertex="1" parent="1">
                    <mxGeometry x="5960" y="1660" width="640" height="260" as="geometry"/>
                </mxCell>
                <mxCell id="135" value="Controller" style="swimlane;startSize=20;html=1;" vertex="1" parent="134">
                    <mxGeometry y="20" width="80" height="240" as="geometry">
                        <mxRectangle y="20" width="40" height="460" as="alternateBounds"/>
                    </mxGeometry>
                </mxCell>
                <mxCell id="136" value="Business Logic" style="swimlane;startSize=20;html=1;" vertex="1" parent="134">
                    <mxGeometry x="80" y="20" width="400" height="240" as="geometry"/>
                </mxCell>
                <mxCell id="137" style="edgeStyle=orthogonalEdgeStyle;html=1;exitX=1;exitY=0.5;exitDx=0;exitDy=0;entryX=0;entryY=0.5;entryDx=0;entryDy=0;" edge="1" parent="136" source="138" target="139">
                    <mxGeometry relative="1" as="geometry"/>
                </mxCell>
                <mxCell id="138" value="Favoriet&lt;br&gt;ophalen" style="rounded=0;whiteSpace=wrap;html=1;" vertex="1" parent="136">
                    <mxGeometry x="40" y="160" width="80" height="40" as="geometry"/>
                </mxCell>
                <mxCell id="139" value="User ophalen" style="rounded=0;whiteSpace=wrap;html=1;" vertex="1" parent="136">
                    <mxGeometry x="280" y="160" width="80" height="40" as="geometry"/>
                </mxCell>
                <mxCell id="140" value="Model" style="swimlane;startSize=20;html=1;" vertex="1" parent="134">
                    <mxGeometry x="480" y="20" width="160" height="240" as="geometry"/>
                </mxCell>
                <mxCell id="141" value="Favoriet" style="swimlane;startSize=23;" vertex="1" parent="140">
                    <mxGeometry x="20" y="60" width="120" height="80" as="geometry"/>
                </mxCell>
                <mxCell id="142" value="&lt;i style=&quot;&quot;&gt;User ophalen*&lt;/i&gt;" style="rounded=0;whiteSpace=wrap;html=1;" vertex="1" parent="140">
                    <mxGeometry x="40" y="160" width="80" height="40" as="geometry"/>
                </mxCell>
                <mxCell id="143" style="edgeStyle=orthogonalEdgeStyle;html=1;exitX=0;exitY=0.5;exitDx=0;exitDy=0;entryX=0.5;entryY=0;entryDx=0;entryDy=0;" edge="1" parent="134" source="141" target="138">
                    <mxGeometry relative="1" as="geometry"/>
                </mxCell>
                <mxCell id="144" style="edgeStyle=orthogonalEdgeStyle;html=1;exitX=0;exitY=0.5;exitDx=0;exitDy=0;entryX=1;entryY=0.5;entryDx=0;entryDy=0;" edge="1" parent="134" source="142" target="139">
                    <mxGeometry relative="1" as="geometry"/>
                </mxCell>
                <mxCell id="152" value="Class: Rating" style="swimlane;childLayout=stackLayout;resizeParent=1;resizeParentMax=0;startSize=20;html=1;" vertex="1" parent="1">
                    <mxGeometry x="5960" y="1360" width="640" height="260" as="geometry"/>
                </mxCell>
                <mxCell id="153" value="Controller" style="swimlane;startSize=20;html=1;" vertex="1" parent="152">
                    <mxGeometry y="20" width="80" height="240" as="geometry">
                        <mxRectangle y="20" width="40" height="460" as="alternateBounds"/>
                    </mxGeometry>
                </mxCell>
                <mxCell id="154" value="Business Logic" style="swimlane;startSize=20;html=1;" vertex="1" parent="152">
                    <mxGeometry x="80" y="20" width="400" height="240" as="geometry"/>
                </mxCell>
                <mxCell id="174" style="edgeStyle=none;html=1;exitX=1;exitY=0.5;exitDx=0;exitDy=0;entryX=0;entryY=0.5;entryDx=0;entryDy=0;fontSize=9;" edge="1" parent="154" source="155" target="173">
                    <mxGeometry relative="1" as="geometry"/>
                </mxCell>
                <mxCell id="155" value="Rating&lt;br&gt;ophalen" style="rounded=0;whiteSpace=wrap;html=1;" vertex="1" parent="154">
                    <mxGeometry x="40" y="160" width="80" height="40" as="geometry"/>
                </mxCell>
                <mxCell id="173" value="Bereken Rating Gemiddeld" style="rounded=0;whiteSpace=wrap;html=1;" vertex="1" parent="154">
                    <mxGeometry x="280" y="150" width="80" height="60" as="geometry"/>
                </mxCell>
                <mxCell id="156" value="Model" style="swimlane;startSize=20;html=1;" vertex="1" parent="152">
                    <mxGeometry x="480" y="20" width="160" height="240" as="geometry"/>
                </mxCell>
                <mxCell id="157" value="Rating" style="swimlane;startSize=23;" vertex="1" parent="156">
                    <mxGeometry x="20" y="60" width="120" height="80" as="geometry"/>
                </mxCell>
                <mxCell id="158" style="edgeStyle=orthogonalEdgeStyle;html=1;exitX=0;exitY=0.5;exitDx=0;exitDy=0;entryX=0.5;entryY=0;entryDx=0;entryDy=0;" edge="1" parent="152" source="157" target="155">
                    <mxGeometry relative="1" as="geometry"/>
                </mxCell>
                <mxCell id="159" value="Class: User" style="swimlane;childLayout=stackLayout;resizeParent=1;resizeParentMax=0;startSize=20;html=1;" vertex="1" parent="1">
                    <mxGeometry x="6680" y="1060" width="640" height="260" as="geometry"/>
                </mxCell>
                <mxCell id="160" value="Controller" style="swimlane;startSize=20;html=1;" vertex="1" parent="159">
                    <mxGeometry y="20" width="80" height="240" as="geometry">
                        <mxRectangle y="20" width="40" height="460" as="alternateBounds"/>
                    </mxGeometry>
                </mxCell>
                <mxCell id="161" value="Business Logic" style="swimlane;startSize=20;html=1;" vertex="1" parent="159">
                    <mxGeometry x="80" y="20" width="400" height="240" as="geometry"/>
                </mxCell>
                <mxCell id="162" value="User&amp;nbsp;ophalen" style="rounded=0;whiteSpace=wrap;html=1;" vertex="1" parent="161">
                    <mxGeometry x="40" y="160" width="80" height="40" as="geometry"/>
                </mxCell>
                <mxCell id="163" value="Model" style="swimlane;startSize=20;html=1;" vertex="1" parent="159">
                    <mxGeometry x="480" y="20" width="160" height="240" as="geometry"/>
                </mxCell>
                <mxCell id="164" value="User" style="swimlane;startSize=23;" vertex="1" parent="163">
                    <mxGeometry x="20" y="60" width="120" height="80" as="geometry"/>
                </mxCell>
                <mxCell id="165" style="edgeStyle=orthogonalEdgeStyle;html=1;exitX=0;exitY=0.5;exitDx=0;exitDy=0;entryX=0.5;entryY=0;entryDx=0;entryDy=0;" edge="1" parent="159" source="164" target="162">
                    <mxGeometry relative="1" as="geometry"/>
                </mxCell>
                <mxCell id="167" value="&lt;font style=&quot;font-size: 48px;&quot;&gt;&lt;b&gt;ASD Verrukkulluk&lt;/b&gt;&lt;/font&gt;" style="text;html=1;align=center;verticalAlign=middle;resizable=0;points=[];autosize=1;strokeColor=none;fillColor=none;" vertex="1" parent="1">
                    <mxGeometry x="5310" y="45" width="430" height="70" as="geometry"/>
                </mxCell>
            </root>
        </mxGraphModel>
    </diagram>
</mxfile>